# AST/ASF file generated using VICON BodyLanguage
# -----------------------------------------------
:version 1.10
:name VICON
:units
  mass 1.0
  length 0.45
  angle deg
:documentation
   .ast/.asf automatically generated from VICON data using
   VICON BodyBuilder and BodyLanguage model FoxedUp or BRILLIANT.MOD
:root
   order TX TY TZ RX RY RZ
   axis XYZ
   position 0 0 0  
   orientation 0 0 0 
:bonedata
  begin
     id 1 
     name lhipjoint
     direction 0.630082 -0.636569 0.44472 
     length 2.82754 
     axis 0 0 0  XYZ
  end
  begin
     id 2 
     name lfemur
     direction 0.34202 -0.939693 0  
     length 7.26371  
     axis 0 0 20  XYZ
    dof rx ry rz
    limits (-160.0 20.0)
           (-70.0 70.0)
           (-60.0 70.0)
  end
  begin
     id 3 
     name ltibia
     direction 0.34202 -0.939693 0   
     length 7.88616   
     axis 0 0 20   XYZ
    dof rx
    limits (-10.0 170.0)
  end
  begin
     id 4 
     name lfoot
     direction 0.0603448 -0.165796 0.984312   
     length 1.77861   
     axis -90 7.62852e-016 20   XYZ
    dof rx rz
    limits (-45.0 90.0)
           (-70.0 20.0)
  end
  begin
     id 5 
     name ltoes
     direction 1.53577e-011 -4.21876e-011 1   
     length 0.902235   
     axis -90 7.62852e-016 20   XYZ
    dof rx
    limits (-90.0 20.0)
  end
  begin
     id 6 
     name rhipjoint
     direction -0.656778 -0.61817 0.431866   
     length 2.9117  
     axis 0 0 0  XYZ 
  end
  begin
     id 7 
     name rfemur
     direction -0.34202 -0.939693 0   
     length 6.81603   
     axis 0 0 -20   XYZ
    dof rx ry rz
    limits (-160.0 20.0)
           (-70.0 70.0)
           (-70.0 60.0)
  end
  begin
     id 8 
     name rtibia
     direction -0.34202 -0.939693 0   
     length 8.05997   
     axis 0 0 -20   XYZ
    dof rx
    limits (-10.0 170.0)
 end
 begin
     id 9 
     name rfoot
     direction -0.0862404 -0.236944 0.967688   
     length 1.84899  
     axis -90 -7.62852e-016 -20   XYZ
    dof rx rz
    limits (-45.0 90.0)
           (-20.0 70.0)
  end
  begin
     id 10 
     name rtoes
     direction -1.53561e-011 -4.21798e-011 1   
     length 0.931579   
     axis -90 -7.62852e-016 -20   XYZ
    dof rx
    limits (-90.0 20.0)
  end
  begin
     id 11 
     name lowerback
     direction -0.0110203 0.991769 -0.127564   
     length 2.05686   
     axis 0 0 0   XYZ
    dof rx ry rz
    limits (-20.0 45.0)
           (-30.0 30.0)
           (-30.0 30.0)
  end
  begin
     id 12 
     name upperback
     direction 0.0109719 0.99993 -0.00432479   
     length 2.06234   
     axis 0 0 0   XYZ
    dof rx ry rz
    limits (-20.0 45.0)
           (-30.0 30.0)
           (-30.0 30.0)
  end
  begin
     id 13 
     name thorax
     direction 0.0173308 0.998351 0.0547306   
     length 2.09856   
     axis 0 0 0   XYZ
    dof rx ry rz
    limits (-20.0 45.0)
           (-30.0 30.0)
           (-30.0 30.0)
  end
  begin
     id 14 
     name lowerneck
     direction -0.0311736 0.989033 0.144366   
     length 1.98151   
     axis 0 0 0   XYZ
    dof rx ry rz
    limits (-20.0 45.0)
           (-30.0 30.0)
           (-30.0 30.0)
  end
  begin
     id 15 
     name upperneck
     direction 0.0421057 0.975772 -0.214698   
     length 2.01457   
     axis 0 0 0   XYZ
    dof rx ry rz
    limits (-20.0 45.0)
           (-30.0 30.0)
           (-30.0 30.0)
  end
  begin
     id 16
     name head
     direction 0.0136911 0.995958 -0.0887718  
     length 2.03562  
     axis 0 0 0   XYZ
    dof rx ry rz
    limits (-20.0 45.0)
           (-30.0 30.0)
           (-30.0 30.0)
  end
  begin
     id 17 
     name lclavicle
     direction 0.915335 0.396201 0.0720134  
     length 4.16217  
     axis 0 0 0   XYZ
    dof ry rz
    limits (-20.0 10.0)
           (0.0 20.0)
  end
  begin
     id 18 
     name lhumerus
     direction 1 -4.48965e-011 6.383e-018   
     length 4.93042   
     axis -180 -30 -90   XYZ
    dof rx ry rz
    limits (-60.0 90.0)
           (-90.0 90.0)
           (-90.0 90.0)
  end
  begin
     id 19
     name lradius
     direction 1 -4.48972e-011 8.8689e-027   
     length 3.68177   
     axis -180 -30 -90   XYZ
    dof rx
    limits (-10.0 170.0)
  end
  begin
     id 20
     name lwrist
     direction 1 -4.48953e-011 1.17971e-026   
     length 1.84089   
     axis -7.69454e-015 90 90   XYZ
    dof ry
    limits (-180.0 0.0)
 end
  begin
     id 21 
     name lhand
     direction 1 -4.49027e-011 2.35802e-026   
     length 0.721479   
     axis -1.50533e-014 90 90   XYZ
    dof rx rz
    limits (-90.0 90.0)
           (-45.0 45.0)
  end
  begin
     id 22 
     name lfingers
     direction 1 -4.48915e-011 4.72027e-026   
     length 0.581675   
     axis -3.01059e-014 90 90   XYZ
    dof rx
    limits (0.0 90.0)
  end
  begin
     id 23
     name lthumb
     direction 0.707107 -6.34948e-011 0.707107   
     length 0.835172   
     axis -90 45 -5.12164e-014   XYZ
    dof rx rz
    limits (-45.0 45.0)
           (-45.0 45.0)
  end
  begin
     id 24 
     name rclavicle
     direction -0.882781 0.469197 0.0234974   
     length 3.95647  
     axis 0 0 0   XYZ 
    dof ry rz
    limits (-10.0 20.0)
           (-20.0 0.0)
  end
  begin
     id 25 
     name rhumerus
     direction -1 -4.48965e-011 -1.54906e-018  
     length 5.07905   
     axis -180 30 90   XYZ
    dof rx ry rz
    limits (-90.0 60.0)
           (-90.0 90.0)
           (-90.0 90.0)
  end
  begin
     id 26 
     name rradius
     direction -1 -4.48972e-011 5.47489e-027   
     length 3.54394   
     axis -180 30 90   XYZ
    dof rx
    limits (-10.0 170.0)
  end
  begin
     id 27 
     name rwrist
     direction -1 -4.48955e-011 1.17969e-026   
     length 1.77197   
     axis -7.69454e-015 -90 -90   XYZ
    dof ry
    limits (-180.0 0.0)
  end
  begin
     id 28
     name rhand
     direction -1 -4.48982e-011 2.35888e-026   
     length 0.681156   
     axis -1.50533e-014 -90 -90   XYZ
    dof rx rz
    limits (-90.0 90.0)
           (-45.0 45.0)
  end
  begin
     id 29
     name rfingers
     direction -1 -4.48955e-011 4.71877e-026   
     length 0.549165   
     axis -3.01059e-014 -90 -90   XYZ
    dof rx
    limits (0.0 90.0)
  end
  begin
     id 30
     name rthumb
     direction -0.707107 -6.3491e-011 0.707107   
     length 0.788495   
     axis -90 -45 5.12164e-014   XYZ
    dof rx rz
    limits (-45.0 45.0)
           (-45.0 45.0)
  end
:hierarchy
  begin
    root lhipjoint rhipjoint lowerback
    lhipjoint lfemur
    lfemur ltibia
    ltibia lfoot
    lfoot ltoes
    rhipjoint rfemur
    rfemur rtibia
    rtibia rfoot
    rfoot rtoes
    lowerback upperback
    upperback thorax
    thorax lowerneck lclavicle rclavicle
    lowerneck upperneck
    upperneck head
    lclavicle lhumerus
    lhumerus lradius
    lradius lwrist
    lwrist lhand lthumb
    lhand lfingers
    rclavicle rhumerus
    rhumerus rradius
    rradius rwrist
    rwrist rhand rthumb
    rhand rfingers
  end

#!OML:ASF H:\Bending\Project 1\Capture day 1\Session 1\Subject.ASF
:FULLY-SPECIFIED
:DEGREES
377
root -8.5266 18.028 -16.5788 15.665 91.3386 8.99751
lowerback 6.13031 0.555178 -1.2869
upperback -1.87305 0.750712 1.98044
thorax -5.43326 0.455842 2.70349
lowerneck -23.9774 -3.27986 -4.15249
upperneck 35.5445 -1.93359 -0.81265
head 17.0473 -1.20675 0.0309688
rclavicle 7.50412e-015 -8.74653e-015
rhumerus -52.2362 -7.15 -64.4764
rradius 31.6505
rwrist 8.34368
rhand -18.7173 -25.6011
rfingers 7.12502
rthumb 7.57806 -55.4453
lclavicle 7.50412e-015 -8.74653e-015
lhumerus -62.5631 26.368 53.5986
lradius 10.6581
lwrist -7.42447
lhand -31.9227 5.56784
lfingers 7.12502
lthumb -5.17411 35.4847
rfemur 4.3268 -8.46209 14.597
rtibia 3.18055e-015
rfoot -9.80865 -12.5064
rtoes 1.02113
lfemur -9.04948 -14.9716 -14.9978
ltibia 22.1323
lfoot -23.8807 18.079
ltoes -27.7185
378
root -8.56655 18.0271 -16.5964 16.6917 91.3484 10.1327
lowerback 6.1285 0.615961 -1.31854
upperback -1.81567 0.826856 1.95548
thorax -5.37653 0.492715 2.68695
lowerneck -23.9015 -3.35384 -4.17381
upperneck 35.5349 -2.04663 -0.792311
head 17.0269 -1.25146 0.0208776
rclavicle -5.31749e-015 3.18055e-015
rhumerus -52.2224 -8.97945 -62.4656
rradius 30.6341
rwrist 9.99484
rhand -18.4814 -23.9684
rfingers 7.12502
rthumb 7.80573 -53.8043
lclavicle -5.31749e-015 3.18055e-015
lhumerus -62.2786 25.3843 54.631
lradius 11.0495
lwrist -5.34109
lhand -31.3807 5.92846
lfingers 7.12502
lthumb -4.65077 35.8574
rfemur 4.32023 -8.45389 14.5557
rtibia 3.18055e-015
rfoot -9.77113 -12.5017
rtoes 1.12348
lfemur -9.08279 -14.9671 -15.0262
ltibia 22.1643
lfoot -23.7662 18.1423
ltoes -28.3151
379
root -8.60872 18.0257 -16.6139 18.8767 91.4028 12.4259
lowerback 6.134 0.660183 -1.34099
upperback -1.75789 0.883322 1.95682
thorax -5.32279 0.520198 2.69484
lowerneck -23.8193 -3.40757 -4.18409
upperneck 35.5059 -2.13028 -0.784577
head 16.9937 -1.28491 0.00974712
rclavicle -5.1684e-015 -1.03368e-014
rhumerus -52.2233 -10.6581 -60.5993
rradius 29.788
rwrist 11.3268
rhand -18.3574 -22.7626
rfingers 7.12502
rthumb 7.92542 -52.594
lclavicle -5.1684e-015 -1.03368e-014
lhumerus -61.349 23.534 57.3274
lradius 11.8572
lwrist -2.14658
lhand -30.8652 6.14588
lfingers 7.12502
lthumb -4.15292 36.0851
rfemur 4.31343 -8.4784 14.5606
rtibia -1.11319e-014
rfoot -9.67103 -12.5042
rtoes 0.907637
lfemur -9.16419 -14.9967 -15.0049
ltibia 22.2426
lfoot -23.7103 18.1807
ltoes -28.8084
380
root -8.65444 18.0244 -16.6329 21.029 91.5089 14.6906
lowerback 6.17526 0.683752 -1.34674
upperback -1.70513 0.914335 1.97137
thorax -5.29318 0.535146 2.70967
lowerneck -23.7287 -3.44859 -4.20945
upperneck 35.4646 -2.19685 -0.757684
head 16.9525 -1.31079 0.013672
rclavicle 1.02871e-014 -1.43125e-014
rhumerus -52.2306 -12.1527 -58.9459
rradius 29.0911
rwrist 12.5578
rhand -18.381 -22.1187
rfingers 7.12502
rthumb 7.90261 -51.951
lclavicle 1.02871e-014 -1.43125e-014
lhumerus -60.2986 21.3665 60.573
lradius 13.042
lwrist 1.39212
lhand -30.4956 6.29421
lfingers 7.12502
lthumb -3.79607 36.2401
rfemur 4.30693 -8.54767 14.5762
rtibia -1.74931e-014
rfoot -9.5292 -12.4884
rtoes 0.59896
lfemur -9.2902 -15.1007 -14.9633
ltibia 22.3566
lfoot -23.7241 18.2086
ltoes -29.0576
381
root -8.70462 18.0235 -16.6554 22.294 91.6666 16.0718
lowerback 6.26803 0.687079 -1.32445
upperback -1.66222 0.920571 1.98581
thorax -5.30126 0.53743 2.7109
lowerneck -23.6288 -3.4851 -4.25444
upperneck 35.4182 -2.25894 -0.705014
head 16.9072 -1.3337 0.033646
rclavicle -4.47266e-016 2.78299e-015
rhumerus -52.2399 -13.4636 -57.5334
rradius 28.5139
rwrist 13.8593
rhand -18.564 -22.0568
rfingers 7.12502
rthumb 7.72597 -51.8956
lclavicle -4.47266e-016 2.78299e-015
lhumerus -59.392 19.3148 63.621
lradius 14.5374
lwrist 4.78932
lhand -30.3724 6.43867
lfingers 7.12502
lthumb -3.67706 36.3867
rfemur 4.29815 -8.66885 14.5705
rtibia 2.06736e-014
rfoot -9.38654 -12.4332
rtoes 0.496517
lfemur -9.45416 -15.2959 -14.9277
ltibia 22.4895
lfoot -23.7907 18.2392
ltoes -29.0285
382
root -8.75921 18.0234 -16.6825 22.4497 91.8682 16.3431
lowerback 6.40824 0.674796 -1.26899
upperback -1.63155 0.908276 1.9911
thorax -5.34731 0.529802 2.68562
lowerneck -23.5206 -3.52356 -4.30285
upperneck 35.3735 -2.3261 -0.643503
head 16.8613 -1.35769 0.0572248
rclavicle 2.18663e-015 6.36111e-015
rhumerus -52.2525 -14.6069 -56.354
rradius 28.0288
rwrist 15.2829
rhand -18.8748 -22.4739
rfingers 7.12502
rthumb 7.42598 -52.3235
lclavicle 2.18663e-015 6.36111e-015
lhumerus -58.6507 17.5416 66.2458
lradius 16.287
lwrist 7.95467
lhand -30.5383 6.61489
lfingers 7.12502
lthumb -3.83733 36.5601
rfemur 4.28294 -8.84087 14.5238
rtibia 1.74931e-014
rfoot -9.28071 -12.3322
rtoes 0.82998
lfemur -9.64663 -15.5646 -14.9153
ltibia 22.6215
lfoot -23.8671 18.2765
ltoes -28.8126
383
root -8.81718 18.0242 -16.7141 21.6965 92.1002 15.6988
lowerback 6.57478 0.654701 -1.18974
upperback -1.61208 0.887123 1.9842
thorax -5.41896 0.517114 2.63508
lowerneck -23.4075 -3.5685 -4.33305
upperneck 35.3356 -2.40443 -0.597283
head 16.8175 -1.38582 0.0685933
rclavicle 1.32689e-014 -2.78299e-015
rhumerus -52.272 -15.5903 -55.3878
rradius 27.6204
rwrist 16.7442
rhand -19.248 -23.2007
rfingers 7.12502
rthumb 7.06571 -53.0628
lclavicle 1.32689e-014 -2.78299e-015
lhumerus -58.0073 15.9959 68.5292
lradius 18.2598
lwrist 10.9821
lhand -30.9586 6.81617
lfingers 7.12502
lthumb -4.24315 36.7537
rfemur 4.25768 -9.05368 14.4313
rtibia -2.38542e-014
rfoot -9.2236 -12.1981
rtoes 1.64164
lfemur -9.85574 -15.8575 -14.9337
ltibia 22.7335
lfoot -23.9004 18.3097
ltoes -28.5727
384
root -8.87693 18.0258 -16.7487 20.3153 92.3454 14.4162
lowerback 6.74081 0.635892 -1.1108
upperback -1.59933 0.867324 1.9662
thorax -5.49732 0.504945 2.57308
lowerneck -23.2954 -3.62347 -4.33555
upperneck 35.3084 -2.49779 -0.579007
head 16.7788 -1.42024 0.0596354
rclavicle 6.95746e-016 7.95139e-015
rhumerus -52.2968 -16.3959 -54.6328
rradius 27.2919
rwrist 18.0634
rhand -19.6105 -24.0885
rfingers 7.12502
rthumb 6.71579 -53.962
lclavicle 6.95746e-016 7.95139e-015
lhumerus -57.4002 14.5651 70.6083
lradius 20.4302
lwrist 13.9145
lhand -31.5206 7.00775
lfingers 7.12502
lthumb -4.78584 36.9337
rfemur 4.22133 -9.29076 14.2974
rtibia -1.59028e-015
rfoot -9.19503 -12.0563
rtoes 2.76495
lfemur -10.0678 -16.1135 -14.9864
ltibia 22.8106
lfoot -23.8463 18.3198
ltoes -28.4683
385
root -8.93705 18.0277 -16.7842 18.476 92.5867 12.6653
lowerback 6.88662 0.625993 -1.06319
upperback -1.58717 0.856271 1.93938
thorax -5.56569 0.497783 2.51871
lowerneck -23.1915 -3.69135 -4.32212
upperneck 35.2934 -2.60872 -0.579593
head 16.7481 -1.46233 0.0357995
rclavicle -5.11871e-015 3.57812e-015
rhumerus -52.3142 -16.979 -54.1232
rradius 27.063
rwrist 19.039
rhand -19.9845 -24.9722
rfingers 7.12502
rthumb 6.35482 -54.8568
lclavicle -5.11871e-015 3.57812e-015
lhumerus -56.7912 13.1926 72.542
lradius 22.7492
lwrist 16.6579
lhand -32.0682 7.15744
lfingers 7.12502
lthumb -5.31458 37.0708
rfemur 4.17517 -9.53434 14.1281
rtibia 3.18055e-015
rfoot -9.1555 -11.9342
rtoes 3.90528
lfemur -10.2707 -16.2829 -15.0766
ltibia 22.8462
lfoot -23.6885 18.286
ltoes -28.5701
386
root -8.99685 18.0296 -16.8189 16.2705 92.8129 10.5418
lowerback 7.00725 0.628562 -1.06972
upperback -1.57007 0.856431 1.90543
thorax -5.61593 0.497535 2.48627
lowerneck -23.1025 -3.77404 -4.32069
upperneck 35.2903 -2.7386 -0.572451
head 16.728 -1.5126 0.0132667
rclavicle 1.49089e-015 5.56597e-015
rhumerus -52.3021 -17.2861 -53.9191
rradius 26.9616
rwrist 19.5249
rhand -20.2729 -25.1213
rfingers 7.12502
rthumb 6.07631 -55.0142
lclavicle 1.49089e-015 5.56597e-015
lhumerus -56.1499 11.9116 74.3018
lradius 25.1324
lwrist 19.0346
lhand -32.4547 7.25601
lfingers 7.12502
lthumb -5.68772 37.1597
rfemur 4.12142 -9.77139 13.9278
rtibia 3.18055e-015
rfoot -9.07024 -11.8479
rtoes 4.79041
lfemur -10.459 -16.3421 -15.2063
ltibia 22.8452
lfoot -23.4429 18.1938
ltoes -28.844
387
root -9.05659 18.0311 -16.8519 13.8167 93.0239 8.16801
lowerback 7.11186 0.641517 -1.13316
upperback -1.54557 0.864587 1.86533
thorax -5.65051 0.502751 2.47863
lowerneck -23.0315 -3.87098 -4.35808
upperneck 35.2967 -2.88636 -0.529865
head 16.7194 -1.57026 0.0090367
rclavicle -3.67752e-015 9.14409e-015
rhumerus -52.2303 -17.3309 -54.0332
rradius 26.9731
rwrist 19.544
rhand -20.3606 -24.7549
rfingers 7.12502
rthumb 5.99167 -54.6502
lclavicle -3.67752e-015 9.14409e-015
lhumerus -55.4428 10.8045 75.8331
lradius 27.478
lwrist 20.9023
lhand -32.5979 7.31105
lfingers 7.12502
lthumb -5.82604 37.211
rfemur 4.06067 -9.99774 13.7017
rtibia 1.11319e-014
rfoot -8.92615 -11.7979
rtoes 5.28459
lfemur -10.6384 -16.2967 -15.3708
ltibia 22.824
lfoot -23.1481 18.0389
ltoes -29.1813
388
root -9.11724 18.0323 -16.8838 11.3679 93.2297 5.7989
lowerback 7.21631 0.657936 -1.2324
upperback -1.51536 0.873483 1.82114
thorax -5.67957 0.509325 2.4868
lowerneck -22.9763 -3.97811 -4.44385
upperneck 35.3088 -3.04753 -0.438705
head 16.7207 -1.63289 0.0314764
rclavicle -5.36719e-015 5.96354e-015
rhumerus -52.0771 -17.1483 -54.4507
rradius 27.0667
rwrist 19.2097
rhand -20.3759 -24.613
rfingers 7.12502
rthumb 5.97688 -54.5087
lclavicle -5.36719e-015 5.96354e-015
lhumerus -54.6419 9.93187 77.1215
lradius 29.7013
lwrist 22.243
lhand -32.5131 7.32669
lfingers 7.12502
lthumb -5.74414 37.2288
rfemur 3.99073 -10.2176 13.4621
rtibia -3.18055e-015
rfoot -8.73291 -11.7735
rtoes 5.41452
lfemur -10.8261 -16.1679 -15.5538
ltibia 22.8086
lfoot -22.8453 17.8218
ltoes -29.4723
389
root -9.17987 18.0334 -16.9158 9.29689 93.4428 3.80529
lowerback 7.33449 0.669082 -1.33052
upperback -1.48464 0.875178 1.77707
thorax -5.71551 0.512392 2.49524
lowerneck -22.9304 -4.08842 -4.56415
upperneck 35.3228 -3.21472 -0.30739
head 16.7277 -1.69684 0.0761435
rclavicle 5.96354e-016 -1.59028e-015
rhumerus -51.8738 -16.8194 -55.0958
rradius 27.2533
rwrist 18.7068
rhand -20.2123 -24.6364
rfingers 7.12502
rthumb 6.13488 -54.5275
lclavicle 5.96354e-016 -1.59028e-015
lhumerus -53.7433 9.27665 78.2202
lradius 31.7668
lwrist 23.1801
lhand -32.3014 7.29588
lfingers 7.12502
lthumb -5.53978 37.2035
rfemur 3.90698 -10.439 13.2304
rtibia 1.59028e-015
rfoot -8.50731 -11.7647
rtoes 5.29164
lfemur -11.0445 -15.9745 -15.7283
ltibia 22.8267
lfoot -22.5571 17.5414
ltoes -29.6697
390
root -9.24511 18.0351 -16.949 7.96094 93.6696 2.54076
lowerback 7.47306 0.668062 -1.39035
upperback -1.45968 0.864454 1.73889
thorax -5.7679 0.508451 2.48965
lowerneck -22.8851 -4.19393 -4.69036
upperneck 35.3361 -3.37963 -0.158434
head 16.7357 -1.75812 0.130082
rclavicle 6.75868e-015 1.15295e-014
rhumerus -51.6372 -16.4462 -55.8533
rradius 27.48
rwrist 18.2101
rhand -19.9171 -24.7523
rfingers 7.12502
rthumb 6.41981 -54.635
lclavicle 6.75868e-015 1.15295e-014
lhumerus -52.7775 8.73345 79.2324
lradius 33.6975
lwrist 23.9266
lhand -32.1043 7.20868
lfingers 7.12502
lthumb -5.34943 37.1212
rfemur 3.80483 -10.6666 13.0331
rtibia 1.59028e-014
rfoot -8.25428 -11.7707
rtoes 5.00629
lfemur -11.3122 -15.7196 -15.8647
ltibia 22.8995
lfoot -22.2796 17.1875
ltoes -29.8004
391
root -9.3129 18.0376 -16.9842 7.52617 93.9059 2.16937
lowerback 7.63099 0.652183 -1.39005
upperback -1.44463 0.840362 1.71164
thorax -5.84018 0.496491 2.46317
lowerneck -22.8345 -4.28796 -4.79532
upperneck 35.3482 -3.53492 -0.0146032
head 16.7413 -1.81338 0.180238
rclavicle -4.72114e-015 -1.31198e-014
rhumerus -51.3984 -16.1468 -56.5868
rradius 27.7028
rwrist 17.8575
rhand -19.5754 -24.7323
rfingers 7.12502
rthumb 6.74972 -54.6048
lclavicle -4.72114e-015 -1.31198e-014
lhumerus -51.8014 8.15392 80.2597
lradius 35.5541
lwrist 24.6926
lhand -32.0369 7.06893
lfingers 7.12502
lthumb -5.28439 36.983
rfemur 3.68201 -10.8968 12.8915
rtibia -9.54166e-015
rfoot -7.95676 -11.8001
rtoes 4.54703
lfemur -11.6343 -15.3899 -15.9432
ltibia 23.034
lfoot -21.9893 16.7438
ltoes -29.9266
